<svg xmlns="http://www.w3.org/2000/svg" width="960" height="240" viewBox="0 0 960 240" role="img" aria-labelledby="title desc">
  <title id="title">Trellis</title>
  <desc id="desc">A geometric T-shaped lattice with connected nodes beside the Trellis wordmark.</desc>
  <defs>
    <linearGradient id="rail" x1="0" y1="0" x2="1" y2="1">
      <stop offset="0" stop-color="#58d5f1"/>
      <stop offset="1" stop-color="#8a9dff"/>
    </linearGradient>
  </defs>
  <g transform="translate(34 24)" fill="none" stroke="url(#rail)" stroke-width="14" stroke-linecap="round" stroke-linejoin="round">
    <path d="M20 28h168M104 28v150M48 28l56 48 56-48M104 92h52l28 28v36"/>
    <path d="M104 126h42l38-42" stroke="#55d8f5" stroke-width="9"/>
  </g>
  <g transform="translate(34 24)">
    <g fill="#12bde3" stroke="#d9f7ff" stroke-width="6">
      <circle cx="20" cy="28" r="15"/><circle cx="104" cy="28" r="15"/><circle cx="188" cy="28" r="15"/>
      <circle cx="104" cy="92" r="15"/><circle cx="104" cy="126" r="15"/><circle cx="104" cy="178" r="15"/>
      <circle cx="146" cy="126" r="15"/><circle cx="184" cy="84" r="15"/>
    </g>
    <circle cx="184" cy="156" r="15" fill="#89eb55" stroke="#e9ffde" stroke-width="6"/>
  </g>
  <text x="270" y="128" fill="#f4f8ff" font-family="Inter, ui-sans-serif, system-ui, sans-serif" font-size="94" font-weight="760" letter-spacing="-4">Trellis</text>
  <text x="275" y="174" fill="#a9bad4" font-family="Inter, ui-sans-serif, system-ui, sans-serif" font-size="23" font-weight="520" letter-spacing="1.3">GUIDANCE · SDD · DETERMINISTIC EVIDENCE</text>
</svg>
